<svg xmlns="http://www.w3.org/2000/svg" viewBox="0 0 1585.5 200.4"><circle cx="100.2" cy="100.2" r="100.2" fill="#fcdf57"/><path d="M256.2,167.8H1585.5v8.3H256.2Zm1.2-142.6h38.1c13.2,0,24.6,2.4,34.4,7.3a52.9,52.9,0,0,1,22.3,20.9Q360,67.1,360,85.5q0,30.6-17.7,46.1c-11.7,10.4-28.3,15.5-49.6,15.5H257.4Zm34.4,110.4q27.9,0,41.1-12.6c8.9-8.5,13.3-20.9,13.3-37.5s-4.3-27.3-12.9-35.9-21.3-12.9-38-12.9H271.1v98.9Zm117.5,6.2a58.1,58.1,0,0,1-23.2-22.4c-5.7-9.7-8.5-20.7-8.5-33.2s2.8-23.5,8.5-33.1a59.5,59.5,0,0,1,23.1-22.5,71.9,71.9,0,0,1,66,0,59.1,59.1,0,0,1,23.2,22.5c5.6,9.6,8.4,20.7,8.4,33.1s-2.8,23.5-8.4,33.2a58.4,58.4,0,0,1-23.3,22.4,72.1,72.1,0,0,1-65.8,0ZM468,131.3a45.9,45.9,0,0,0,18.4-17.9c4.4-7.8,6.7-16.8,6.7-27.2s-2.2-19.2-6.6-27a47.7,47.7,0,0,0-18.2-18,53.7,53.7,0,0,0-25.7-6.3,52.4,52.4,0,0,0-26,6.3,46.4,46.4,0,0,0-18.5,18c-4.5,7.7-6.8,16.8-6.8,27s2.3,19.4,6.7,27.1a45.9,45.9,0,0,0,18.4,17.9,56,56,0,0,0,51.6,0ZM528.1,25.2h45.7q19.5,0,30.3,9c7.2,6.1,10.9,15,10.9,26.9s-3.6,21-10.8,26.9-17.3,8.9-30.4,8.9h-32v50.2H528.1Zm44.7,60.2c8.8,0,15.7-1.8,20.8-5.4s7.6-9.8,7.6-18.9-2.5-15.5-7.6-19.1-12-5.3-20.8-5.3h-31V85.4Zm85.3,56.4a58.1,58.1,0,0,1-23.2-22.4,65.1,65.1,0,0,1-8.5-33.2c0-12.4,2.9-23.5,8.5-33.1a59.1,59.1,0,0,1,23.2-22.5,71.9,71.9,0,0,1,66,0,59.5,59.5,0,0,1,23.1,22.5c5.6,9.6,8.5,20.7,8.5,33.1a65.1,65.1,0,0,1-8.5,33.2A58.1,58.1,0,0,1,724,141.8,72.3,72.3,0,0,1,658.1,141.8Zm58.7-10.5a45.9,45.9,0,0,0,18.4-17.9c4.5-7.8,6.7-16.8,6.7-27.2s-2.2-19.2-6.6-27a46.3,46.3,0,0,0-18.2-18,53.4,53.4,0,0,0-25.7-6.3,52.6,52.6,0,0,0-26,6.3,45.5,45.5,0,0,0-18.4,18c-4.6,7.7-6.8,16.8-6.8,27s2.2,19.4,6.7,27.1a46.3,46.3,0,0,0,18.3,17.9,56,56,0,0,0,51.6,0ZM776.9,25.2H791l46.6,100.7L884.2,25.2h14.2v122H884.8V52.9l-43.6,94.2h-7.1L790.5,52.9v94.2H776.9ZM951.3,141.8a57.5,57.5,0,0,1-23.2-22.4c-5.7-9.7-8.5-20.7-8.5-33.2s2.8-23.5,8.5-33.1a58.8,58.8,0,0,1,23.1-22.5,71.9,71.9,0,0,1,66,0,59.5,59.5,0,0,1,23.1,22.5c5.7,9.6,8.5,20.7,8.5,33.1s-2.8,23.5-8.5,33.2a58.1,58.1,0,0,1-23.2,22.4,72.3,72.3,0,0,1-65.9,0Zm58.7-10.5a45.9,45.9,0,0,0,18.4-17.9c4.4-7.8,6.7-16.8,6.7-27.2s-2.2-19.2-6.6-27a47.7,47.7,0,0,0-18.2-18,56.2,56.2,0,0,0-51.7,0,45.5,45.5,0,0,0-18.4,18c-4.6,7.7-6.8,16.8-6.8,27s2.2,19.4,6.7,27.1a46.3,46.3,0,0,0,18.3,17.9,56,56,0,0,0,51.6,0Zm60-106.1h13.8V79.3h69.6V25.2h13.7v122h-13.7V90.8h-69.6v56.3H1070Zm167.6,0h12.9l49.3,122h-14.1l-13.3-32.7h-56.9l-13,32.7h-14.2Zm30.9,77.8L1244,40.9,1219.6,103Zm51.2,42a7.5,7.5,0,0,1-2.3-5.5,7.9,7.9,0,0,1,2.3-5.6,7.5,7.5,0,0,1,5.5-2.3,8.1,8.1,0,0,1,5.7,2.3,7.9,7.9,0,0,1,2.3,5.6,7.5,7.5,0,0,1-2.3,5.5,8.2,8.2,0,0,1-5.7,2.2A7,7,0,0,1,1319.7,145Zm34.6-119.8H1402c12.8,0,22.6,2.9,29.2,8.9s10,14.7,10,26.3c0,8.8-2.6,16.4-7.8,22.5s-12.6,10.1-21.9,11.7l29.4,52.5h-14.3l-29-51.8h-29.5v51.8h-13.8Zm46,58.6c8.4,0,15.1-2,20-5.9s7.2-9.8,7.2-17.5-2.4-14.7-7.2-18.3-11.4-5.4-20-5.4h-32.1V83.8Zm87.6,58a58.8,58.8,0,0,1-23.2-22.4,65.1,65.1,0,0,1-8.5-33.2c0-12.4,2.9-23.5,8.5-33.1a59.5,59.5,0,0,1,23.1-22.5,72.1,72.1,0,0,1,66.1,0A59.5,59.5,0,0,1,1577,53.1c5.7,9.6,8.5,20.7,8.5,33.1s-2.8,23.5-8.5,33.2a58.1,58.1,0,0,1-23.2,22.4,72.3,72.3,0,0,1-65.9,0Zm58.8-10.5a46.3,46.3,0,0,0,18.3-17.9c4.5-7.8,6.7-16.8,6.7-27.2s-2.2-19.2-6.6-27a47.7,47.7,0,0,0-18.2-18,56.6,56.6,0,0,0-51.7-.1,46.8,46.8,0,0,0-18.4,18c-4.6,7.8-6.8,16.9-6.8,27.1s2.2,19.4,6.7,27.1a45.7,45.7,0,0,0,18.3,17.9,56,56,0,0,0,51.6,0Z" fill="#2e2d77"/></svg>